<?xml version="1.0" encoding="utf-8"?>
<!-- Generator: Adobe Illustrator 26.0.1, SVG Export Plug-In . SVG Version: 6.00 Build 0)  -->
<svg version="1.1" id="Layer_1" xmlns="http://www.w3.org/2000/svg" xmlns:xlink="http://www.w3.org/1999/xlink" x="0px" y="0px"
	 viewBox="0 0 228 48" style="enable-background:new 0 0 228 48;" xml:space="preserve">
<style type="text/css">
	.st0{fill:#22493B;}
</style>
<g>
	<path class="st0" d="M15.15,10.79c1.06,0.27,2.2,0.66,3.25,1.2c0.26-1.54,0.89-3.05,1.62-4.4c-1.49-1.08-2.93-1.85-3.68-2.21
		C16.02,6.35,15.37,8.47,15.15,10.79z"/>
	<path class="st0" d="M7.74,19.98c1.37-0.75,2.9-1.39,4.47-1.65c-0.55-1.05-0.95-2.19-1.23-3.26c-2.35,0.22-4.5,0.87-5.47,1.2
		C5.88,17.03,6.65,18.49,7.74,19.98z"/>
	<path class="st0" d="M10.96,32.85c0.27-1.06,0.66-2.2,1.2-3.25c-1.54-0.26-3.05-0.89-4.4-1.62c-1.08,1.49-1.85,2.93-2.21,3.68
		C6.51,31.98,8.63,32.63,10.96,32.85z"/>
	<path class="st0" d="M20.07,40.32c-0.76-1.37-1.4-2.9-1.67-4.48c-1.03,0.52-2.12,0.9-3.16,1.18c0.22,2.35,0.87,4.5,1.2,5.47
		C17.19,42.13,18.61,41.38,20.07,40.32z"/>
	<path class="st0" d="M33.02,37.04c-1.06-0.27-2.2-0.66-3.25-1.2c-0.26,1.54-0.89,3.05-1.62,4.4c1.49,1.08,2.93,1.85,3.68,2.21
		C32.15,41.49,32.79,39.37,33.02,37.04z"/>
	<path class="st0" d="M40.43,27.85c-1.37,0.75-2.9,1.39-4.47,1.65c0.55,1.05,0.95,2.19,1.23,3.26c2.35-0.22,4.5-0.87,5.47-1.2
		C42.29,30.8,41.52,29.34,40.43,27.85z"/>
	<path class="st0" d="M37.21,14.99c-0.27,1.06-0.66,2.19-1.2,3.25c1.54,0.26,3.05,0.89,4.4,1.63c1.08-1.49,1.85-2.93,2.21-3.68
		C41.65,15.85,39.53,15.21,37.21,14.99z"/>
	<path class="st0" d="M28.02,7.57c0.75,1.37,1.39,2.9,1.65,4.47c1.05-0.55,2.19-0.95,3.26-1.23c-0.22-2.35-0.87-4.5-1.2-5.47
		C30.97,5.71,29.51,6.48,28.02,7.57z"/>
	<path class="st0" d="M24.03,3.83c-1.1,1.25-4.16,5.03-4.62,8.73c0.48,0.32,0.94,0.67,1.34,1.08c1.56,1.56,2.54,3.21,2.83,4.78
		c0.03,0.16,0.05,0.32,0.07,0.48c0.14-0.01,0.28-0.02,0.43-0.02c0.15,0,0.29,0.01,0.44,0.02c0.15-1.55,1.01-3.37,2.89-5.26
		c0.37-0.37,0.8-0.71,1.24-1.01C28.23,8.91,25.14,5.09,24.03,3.83z"/>
	<path class="st0" d="M4,23.97c1.25,1.1,5.03,4.16,8.73,4.62c0.32-0.48,0.67-0.94,1.08-1.34c1.89-1.89,3.71-2.75,5.26-2.89
		c-0.01-0.14-0.02-0.29-0.02-0.44c0-0.15,0.01-0.29,0.02-0.44c-1.55-0.15-3.37-1.01-5.26-2.89c-0.37-0.37-0.71-0.8-1.01-1.24
		C9.08,19.77,5.26,22.86,4,23.97z"/>
	<path class="st0" d="M44.17,23.86c-1.25-1.1-5.03-4.16-8.73-4.62c-0.32,0.48-0.67,0.94-1.08,1.34c-1.89,1.89-3.71,2.75-5.26,2.89
		c0.01,0.14,0.02,0.29,0.02,0.44s-0.01,0.29-0.02,0.44c1.55,0.15,3.37,1.01,5.26,2.89c0.37,0.37,0.71,0.8,1.01,1.24
		C39.09,28.06,42.91,24.97,44.17,23.86z"/>
	<path class="st0" d="M14.58,19.81c1.6,1.6,3.27,2.48,4.7,2.59c0.49-1.57,1.73-2.81,3.3-3.3c-0.01-0.16-0.03-0.32-0.06-0.49
		c-0.26-1.35-1.13-2.81-2.53-4.21c-2.38-2.38-6.92-3.01-8.56-3.16C11.57,12.89,12.2,17.43,14.58,19.81z"/>
	<path class="st0" d="M28.19,14.42c-1.6,1.6-2.48,3.27-2.59,4.7c1.57,0.49,2.8,1.73,3.3,3.3c1.43-0.11,3.1-1,4.7-2.59
		c2.38-2.38,3.01-6.92,3.16-8.56C35.11,11.41,30.57,12.03,28.19,14.42z"/>
	<path class="st0" d="M28.66,35.19c-0.45-0.3-0.87-0.63-1.24-1.01c-1.89-1.89-2.75-3.71-2.89-5.26c-0.14,0.01-0.29,0.02-0.44,0.02
		c-0.15,0-0.29-0.01-0.44-0.02c-0.15,1.55-1.01,3.37-2.89,5.26c-0.4,0.4-0.86,0.76-1.34,1.08c0.46,3.7,3.52,7.48,4.62,8.73
		C25.14,42.74,28.23,38.92,28.66,35.19z"/>
	<path class="st0" d="M19.98,33.42c1.6-1.6,2.48-3.27,2.59-4.7c-1.56-0.49-2.8-1.73-3.29-3.29c-1.43,0.11-3.1,0.99-4.7,2.59
		c-2.39,2.39-3.01,6.92-3.16,8.56C13.06,36.43,17.6,35.8,19.98,33.42z"/>
	<path class="st0" d="M33.59,28.02c-1.6-1.6-3.27-2.48-4.7-2.59c-0.49,1.57-1.73,2.8-3.3,3.3c0.11,1.43,1,3.1,2.59,4.7
		c2.39,2.39,6.92,3.01,8.56,3.16C36.59,34.94,35.97,30.4,33.59,28.02z"/>
	<path class="st0" d="M24.08,19.97c-2.17,0-3.94,1.77-3.94,3.94c0,2.17,1.77,3.94,3.94,3.94c2.17,0,3.94-1.77,3.94-3.94
		C28.03,21.74,26.26,19.97,24.08,19.97z M26.26,23.92c0,1.2-0.98,2.18-2.18,2.18c-1.2,0-2.18-0.98-2.18-2.18
		c0-1.2,0.98-2.18,2.18-2.18C25.29,21.74,26.26,22.71,26.26,23.92z"/>
</g>
<g>
	<g>
		<path class="st0" d="M58.07,28.11l0.15-1.24c0.57-0.05,0.99-0.13,1.25-0.23c0.27-0.1,0.44-0.29,0.52-0.56
			c0.08-0.27,0.12-0.68,0.12-1.23v-7.62c-0.52,0.03-0.93,0.06-1.24,0.11c-0.3,0.05-0.54,0.16-0.69,0.32s-0.28,0.41-0.35,0.73
			c-0.08,0.32-0.14,0.76-0.19,1.32l-1.56,0.11c0.04-0.43,0.07-0.89,0.1-1.38c0.03-0.49,0.06-0.97,0.08-1.43
			c0.02-0.47,0.04-0.88,0.05-1.24l0.21-0.21l1.88,0.21h5.93l1.92-0.21l0.21,0.21c0.01,0.42,0.03,0.87,0.04,1.36s0.04,0.95,0.07,1.4
			s0.06,0.84,0.09,1.18l-1.56,0.11c-0.06-0.6-0.13-1.06-0.21-1.41c-0.08-0.34-0.19-0.59-0.33-0.75c-0.15-0.16-0.36-0.27-0.65-0.32
			c-0.28-0.06-0.67-0.1-1.15-0.12c-0.04,0.44-0.07,0.99-0.09,1.64s-0.04,1.36-0.06,2.11c-0.01,0.75-0.03,1.52-0.05,2.29
			c-0.02,0.77-0.03,1.49-0.03,2.17c0,0.48,0.08,0.82,0.25,1.02c0.16,0.2,0.43,0.29,0.8,0.29c0.32,0,0.65-0.02,1.01-0.06l0.08,0.09
			l-0.17,1.27c-0.33-0.01-0.7-0.03-1.12-0.04s-0.82-0.02-1.22-0.03C61.76,28,61.45,28,61.22,28c-0.21,0-0.5,0-0.86,0.01
			c-0.36,0.01-0.74,0.02-1.14,0.04C58.82,28.07,58.44,28.09,58.07,28.11z"/>
		<path class="st0" d="M67.44,27.01c0.37-0.06,0.64-0.19,0.81-0.38c0.17-0.19,0.26-0.46,0.26-0.8v-4.1c0-0.41-0.06-0.68-0.17-0.84
			c-0.11-0.15-0.32-0.23-0.63-0.23c-0.08,0-0.22,0.02-0.44,0.06l0.11-1.08c0.43-0.06,0.86-0.13,1.28-0.2
			c0.42-0.07,0.81-0.14,1.16-0.21c0.35-0.07,0.73-0.14,1.15-0.22l0.17,0.3c-0.06,0.14-0.12,0.41-0.18,0.81s-0.1,0.89-0.14,1.48
			s-0.07,1.26-0.09,2.01s-0.04,1.55-0.04,2.38c0,0.29,0.04,0.5,0.13,0.64s0.24,0.2,0.46,0.2c0.1,0,0.29-0.01,0.55-0.04l0.06,0.1
			l-0.19,1.16c-0.28-0.01-0.53-0.02-0.75-0.03c-0.22-0.01-0.45-0.01-0.68-0.02C70.02,28,69.81,28,69.6,28c-0.3,0-0.64,0.02-1,0.06
			c-0.36,0.04-0.8,0.09-1.32,0.15L67.44,27.01z M69.43,17.38c-0.43,0-0.76-0.12-0.98-0.37c-0.22-0.25-0.33-0.57-0.33-0.96
			c0-0.44,0.14-0.81,0.42-1.09c0.28-0.29,0.64-0.43,1.08-0.43c0.42,0,0.74,0.13,0.96,0.38s0.33,0.58,0.33,0.97
			c0,0.44-0.13,0.8-0.4,1.08C70.25,17.24,69.89,17.38,69.43,17.38z"/>
		<path class="st0" d="M77.11,28.23c-0.89,0-1.65-0.18-2.29-0.53s-1.13-0.86-1.48-1.52c-0.35-0.66-0.52-1.43-0.52-2.32
			c0-0.7,0.11-1.34,0.34-1.92c0.23-0.58,0.54-1.09,0.95-1.53s0.88-0.78,1.42-1.03c0.54-0.25,1.13-0.37,1.77-0.37
			c2.13,0,3.19,1.08,3.19,3.23c0,0.19-0.02,0.39-0.05,0.59c-0.03,0.2-0.06,0.36-0.08,0.48l-0.23,0.23h-4.92
			c0.03,0.87,0.23,1.55,0.62,2.04c0.39,0.49,0.93,0.76,1.62,0.81c0.7,0.05,1.51-0.14,2.45-0.57l0.13,0.08l0.3,0.93
			c-0.25,0.19-0.57,0.4-0.95,0.62s-0.77,0.41-1.18,0.56S77.44,28.23,77.11,28.23z M75.21,22.49l2.6-0.15
			c0.15-0.01,0.25-0.05,0.29-0.1c0.04-0.06,0.07-0.17,0.07-0.33c0-0.46-0.1-0.8-0.3-1.04c-0.2-0.24-0.5-0.36-0.89-0.36
			c-0.49,0-0.9,0.17-1.21,0.5C75.46,21.33,75.27,21.83,75.21,22.49z"/>
		<path class="st0" d="M87.16,26.97c0.32-0.06,0.54-0.18,0.67-0.35c0.13-0.17,0.21-0.41,0.22-0.71l0.06-3.29
			c0-0.56-0.1-0.97-0.3-1.24c-0.2-0.27-0.51-0.41-0.93-0.41c-0.2,0-0.42,0.04-0.64,0.12c-0.22,0.08-0.42,0.18-0.6,0.29
			c-0.18,0.11-0.32,0.22-0.44,0.3c-0.01,0.34-0.03,0.73-0.06,1.16s-0.05,0.86-0.07,1.28c-0.02,0.42-0.04,0.8-0.05,1.13
			c-0.01,0.33-0.02,0.56-0.02,0.7c0,0.33,0.04,0.55,0.13,0.67s0.23,0.18,0.44,0.18c0.09,0,0.26-0.01,0.51-0.02l0.04,0.08l-0.19,1.18
			c-0.46-0.03-0.84-0.04-1.15-0.05C84.48,28,84.2,28,83.95,28c-0.33,0-0.67,0.01-1.02,0.03c-0.35,0.02-0.76,0.05-1.23,0.09
			l0.15-1.18c0.37-0.05,0.62-0.15,0.77-0.3c0.15-0.15,0.22-0.41,0.22-0.76v-4.03c0-0.43-0.07-0.73-0.2-0.89
			c-0.13-0.16-0.38-0.25-0.73-0.25h-0.25l-0.08-0.1l0.09-0.99c0.58-0.09,1.14-0.18,1.67-0.28c0.53-0.1,1.14-0.21,1.82-0.35
			l0.15,0.19c-0.11,0.54-0.18,0.98-0.21,1.31l0.08,0.08c0.15-0.13,0.34-0.28,0.56-0.46s0.46-0.35,0.7-0.51s0.48-0.3,0.69-0.42
			c0.22-0.11,0.39-0.17,0.51-0.17c0.9,0,1.6,0.22,2.1,0.65c0.5,0.43,0.75,1.03,0.75,1.8c0,0.19-0.02,0.48-0.06,0.87
			c-0.04,0.39-0.08,0.82-0.12,1.29c-0.04,0.47-0.08,0.91-0.11,1.33c-0.03,0.42-0.05,0.75-0.05,0.99c0,0.32,0.04,0.55,0.13,0.69
			s0.24,0.22,0.46,0.22c0.11,0,0.31-0.01,0.59-0.04l0.04,0.08l-0.17,1.16c-0.29-0.01-0.54-0.02-0.76-0.03
			c-0.22-0.01-0.44-0.01-0.67-0.02C89.57,28,89.36,28,89.17,28c-0.19,0-0.4,0.01-0.64,0.03c-0.23,0.02-0.47,0.04-0.69,0.05
			c-0.23,0.01-0.49,0.04-0.78,0.08L87.16,26.97z"/>
		<path class="st0" d="M100.12,28.23c-1.13,0-1.76-0.46-1.9-1.37l-0.11-0.04c-0.61,0.43-1.1,0.76-1.47,0.99
			c-0.37,0.23-0.62,0.34-0.75,0.34c-0.73,0-1.37-0.17-1.91-0.5c-0.54-0.33-0.96-0.82-1.25-1.44s-0.45-1.36-0.45-2.21
			c0-0.95,0.21-1.8,0.62-2.54c0.41-0.74,0.98-1.33,1.7-1.76c0.72-0.43,1.55-0.65,2.47-0.65c0.16,0,0.33,0,0.48,0.01
			s0.33,0.02,0.5,0.05v-2.45c0-0.39-0.06-0.67-0.18-0.83c-0.12-0.16-0.33-0.24-0.62-0.24c-0.09,0-0.24,0.02-0.46,0.06l0.11-1.12
			c0.44-0.05,0.89-0.11,1.33-0.19c0.44-0.08,0.85-0.15,1.21-0.22c0.36-0.07,0.76-0.14,1.21-0.22l0.17,0.32
			c-0.06,0.1-0.13,0.37-0.19,0.82s-0.12,1.02-0.16,1.74c-0.04,0.72-0.08,1.54-0.12,2.46c-0.04,0.92-0.07,1.92-0.09,2.97
			c-0.02,1.06-0.03,2.16-0.03,3.3c0,0.24,0.05,0.43,0.16,0.57s0.26,0.21,0.45,0.21c0.15,0,0.29-0.03,0.43-0.09
			c0.13-0.06,0.28-0.14,0.45-0.24l0.3,0.4c-0.2,0.3-0.39,0.57-0.56,0.79s-0.37,0.43-0.6,0.64
			C100.63,27.99,100.38,28.14,100.12,28.23z M96.58,26.4c0.18,0,0.35-0.04,0.52-0.1c0.17-0.07,0.33-0.15,0.47-0.23
			c0.14-0.08,0.3-0.19,0.47-0.31v-4.81c-0.52-0.22-0.99-0.32-1.41-0.32c-0.62,0-1.1,0.23-1.44,0.69c-0.34,0.46-0.51,1.12-0.51,1.97
			c0,0.63,0.08,1.18,0.24,1.64c0.16,0.46,0.38,0.82,0.67,1.08S96.2,26.4,96.58,26.4z"/>
		<path class="st0" d="M109.24,28.23c-0.56,0-1-0.13-1.32-0.38c-0.32-0.25-0.52-0.61-0.58-1.08l-0.15-0.06
			c-0.24,0.25-0.49,0.49-0.76,0.71c-0.27,0.22-0.51,0.4-0.74,0.53c-0.23,0.13-0.42,0.2-0.59,0.2c-0.49,0-0.94-0.12-1.33-0.36
			s-0.7-0.57-0.93-0.99c-0.23-0.42-0.34-0.89-0.34-1.41c0-0.39,0.1-0.73,0.31-1.02c0.21-0.28,0.47-0.47,0.79-0.56l3.67-0.85
			l0.02-0.46c0-0.54-0.14-0.97-0.43-1.27c-0.28-0.3-0.69-0.46-1.21-0.46c-0.35,0-0.73,0.09-1.14,0.26
			c-0.41,0.17-0.77,0.38-1.08,0.64l-0.17-0.08l-0.32-1.14c0.37-0.22,0.78-0.43,1.23-0.66c0.46-0.22,0.89-0.41,1.3-0.56
			c0.41-0.15,0.73-0.23,0.94-0.23c0.73,0,1.34,0.11,1.81,0.34c0.47,0.23,0.81,0.54,1.03,0.92c0.22,0.39,0.32,0.83,0.32,1.32
			c0,0.16-0.02,0.42-0.06,0.76c-0.04,0.34-0.08,0.72-0.13,1.12s-0.09,0.79-0.13,1.16s-0.06,0.66-0.06,0.87
			c0,0.24,0.06,0.43,0.18,0.57c0.12,0.14,0.29,0.21,0.5,0.21c0.17,0,0.33-0.04,0.5-0.11s0.31-0.15,0.41-0.21l0.29,0.4
			c-0.13,0.21-0.29,0.46-0.49,0.73c-0.2,0.27-0.42,0.51-0.65,0.72C109.69,28.03,109.47,28.16,109.24,28.23z M105.8,26.35
			c0.19,0,0.41-0.05,0.67-0.16s0.49-0.24,0.69-0.39l0.06-1.8l-2.03,0.57c-0.3,0.09-0.46,0.3-0.46,0.63c0,0.33,0.1,0.6,0.29,0.83
			C105.23,26.24,105.48,26.35,105.8,26.35z"/>
		<path class="st0" d="M122.8,28.23c-1.13,0-1.76-0.46-1.9-1.37l-0.11-0.04c-0.61,0.43-1.1,0.76-1.47,0.99
			c-0.37,0.23-0.62,0.34-0.75,0.34c-0.73,0-1.37-0.17-1.91-0.5c-0.54-0.33-0.96-0.82-1.25-1.44s-0.45-1.36-0.45-2.21
			c0-0.95,0.21-1.8,0.62-2.54c0.41-0.74,0.98-1.33,1.7-1.76c0.72-0.43,1.55-0.65,2.47-0.65c0.16,0,0.33,0,0.48,0.01
			s0.33,0.02,0.5,0.05v-2.45c0-0.39-0.06-0.67-0.18-0.83c-0.12-0.16-0.33-0.24-0.62-0.24c-0.09,0-0.24,0.02-0.46,0.06l0.11-1.12
			c0.44-0.05,0.89-0.11,1.33-0.19c0.44-0.08,0.85-0.15,1.21-0.22c0.36-0.07,0.76-0.14,1.21-0.22l0.17,0.32
			c-0.06,0.1-0.13,0.37-0.19,0.82s-0.12,1.02-0.16,1.74c-0.04,0.72-0.08,1.54-0.12,2.46c-0.04,0.92-0.07,1.92-0.09,2.97
			c-0.02,1.06-0.03,2.16-0.03,3.3c0,0.24,0.05,0.43,0.16,0.57s0.26,0.21,0.45,0.21c0.15,0,0.29-0.03,0.43-0.09
			c0.13-0.06,0.28-0.14,0.45-0.24l0.3,0.4c-0.2,0.3-0.39,0.57-0.56,0.79s-0.37,0.43-0.6,0.64C123.32,27.99,123.07,28.14,122.8,28.23
			z M119.27,26.4c0.18,0,0.35-0.04,0.52-0.1c0.17-0.07,0.33-0.15,0.47-0.23c0.14-0.08,0.3-0.19,0.47-0.31v-4.81
			c-0.52-0.22-0.99-0.32-1.41-0.32c-0.62,0-1.1,0.23-1.44,0.69c-0.34,0.46-0.51,1.12-0.51,1.97c0,0.63,0.08,1.18,0.24,1.64
			c0.16,0.46,0.38,0.82,0.67,1.08S118.89,26.4,119.27,26.4z"/>
		<path class="st0" d="M129.45,28.23c-0.89,0-1.65-0.18-2.29-0.53s-1.13-0.86-1.48-1.52c-0.35-0.66-0.52-1.43-0.52-2.32
			c0-0.7,0.11-1.34,0.34-1.92c0.23-0.58,0.54-1.09,0.95-1.53s0.88-0.78,1.42-1.03c0.54-0.25,1.13-0.37,1.77-0.37
			c2.13,0,3.19,1.08,3.19,3.23c0,0.19-0.02,0.39-0.05,0.59c-0.03,0.2-0.06,0.36-0.08,0.48l-0.23,0.23h-4.92
			c0.03,0.87,0.23,1.55,0.62,2.04c0.39,0.49,0.93,0.76,1.62,0.81c0.7,0.05,1.51-0.14,2.45-0.57l0.13,0.08l0.3,0.93
			c-0.25,0.19-0.57,0.4-0.95,0.62s-0.77,0.41-1.18,0.56S129.78,28.23,129.45,28.23z M127.55,22.49l2.6-0.15
			c0.15-0.01,0.25-0.05,0.29-0.1c0.04-0.06,0.07-0.17,0.07-0.33c0-0.46-0.1-0.8-0.3-1.04c-0.2-0.24-0.5-0.36-0.89-0.36
			c-0.49,0-0.9,0.17-1.21,0.5C127.8,21.33,127.62,21.83,127.55,22.49z"/>
		<path class="st0" d="M140.93,28.23c-0.66,0-1.24-0.06-1.74-0.18s-1.03-0.3-1.59-0.54l-0.15-0.27c0.06-0.37,0.11-0.71,0.14-1.02
			c0.03-0.31,0.07-0.66,0.1-1.04c0.04-0.39,0.06-0.78,0.06-1.17l1.56-0.11c0,0.7,0.06,1.24,0.19,1.63s0.34,0.67,0.66,0.82
			c0.31,0.15,0.73,0.23,1.26,0.23c0.61,0,1.1-0.13,1.46-0.4c0.37-0.27,0.55-0.63,0.55-1.1c0-0.35-0.14-0.66-0.41-0.91
			s-0.62-0.49-1.04-0.71s-0.88-0.45-1.36-0.67c-0.49-0.24-0.97-0.51-1.43-0.82c-0.46-0.3-0.84-0.67-1.14-1.08
			c-0.3-0.42-0.45-0.92-0.45-1.52c0-0.73,0.22-1.39,0.66-1.96c0.44-0.57,1.03-1.02,1.79-1.34c0.75-0.32,1.62-0.48,2.61-0.48
			c0.62,0,1.17,0.04,1.66,0.12c0.49,0.08,1.01,0.21,1.57,0.39l0.13,0.25c-0.13,0.6-0.23,1.14-0.29,1.64s-0.12,1.04-0.16,1.61
			l-1.41,0.11l-0.17-0.11c0.03-0.28,0.04-0.51,0.04-0.68c0-0.57-0.14-0.98-0.43-1.22s-0.76-0.36-1.43-0.36
			c-0.54,0-0.99,0.13-1.34,0.4c-0.35,0.27-0.52,0.6-0.52,0.99c0,0.33,0.12,0.62,0.35,0.86c0.23,0.25,0.54,0.47,0.92,0.67
			s0.79,0.41,1.22,0.63c0.54,0.25,1.08,0.53,1.6,0.84c0.52,0.3,0.95,0.67,1.29,1.09c0.34,0.42,0.51,0.96,0.51,1.61
			c0,0.76-0.22,1.43-0.66,2c-0.44,0.58-1.05,1.02-1.83,1.34S141.99,28.23,140.93,28.23z"/>
		<path class="st0" d="M148.41,21.6c0-0.32-0.05-0.55-0.15-0.7c-0.1-0.15-0.27-0.23-0.49-0.23c-0.11,0-0.27,0.02-0.48,0.06l0.11-1.1
			c0.39-0.05,0.79-0.11,1.19-0.18c0.4-0.07,0.77-0.14,1.11-0.21c0.34-0.07,0.72-0.14,1.14-0.22l0.17,0.3
			c-0.08,0.17-0.14,0.43-0.2,0.8c-0.06,0.37-0.11,0.8-0.16,1.3c-0.05,0.5-0.09,1.03-0.11,1.6s-0.04,1.13-0.04,1.7
			c0,1.03,0.4,1.54,1.2,1.54c0.29,0,0.58-0.08,0.86-0.24s0.55-0.32,0.79-0.48v-3.91c0-0.37-0.05-0.61-0.16-0.73
			c-0.11-0.12-0.33-0.19-0.66-0.2c-0.05,0-0.12,0-0.2,0.01c-0.08,0.01-0.13,0.01-0.14,0.01l0.15-1.08c0.42-0.05,0.83-0.11,1.24-0.18
			c0.41-0.07,0.79-0.13,1.13-0.19c0.34-0.06,0.73-0.12,1.16-0.2l0.17,0.3c-0.09,0.19-0.17,0.59-0.25,1.21
			c-0.08,0.61-0.14,1.35-0.19,2.21c-0.05,0.86-0.08,1.77-0.08,2.74c0,0.24,0.06,0.43,0.18,0.57s0.29,0.21,0.5,0.21
			c0.15,0,0.3-0.03,0.44-0.09c0.14-0.06,0.3-0.14,0.48-0.24l0.28,0.38c-0.23,0.34-0.44,0.63-0.64,0.87
			c-0.2,0.23-0.41,0.45-0.64,0.65c-0.23,0.2-0.46,0.32-0.68,0.37c-1.17,0-1.81-0.49-1.94-1.46l-0.15-0.08
			c-0.49,0.46-0.93,0.82-1.32,1.1s-0.66,0.42-0.81,0.42c-0.96,0-1.7-0.2-2.2-0.61s-0.76-0.99-0.76-1.77L148.41,21.6z"/>
		<path class="st0" d="M162.04,28.23c-0.86,0-1.61-0.18-2.23-0.53s-1.11-0.86-1.44-1.51c-0.33-0.65-0.5-1.43-0.5-2.33
			c0-0.95,0.2-1.79,0.59-2.51c0.39-0.72,0.94-1.29,1.63-1.71s1.5-0.63,2.39-0.63c0.48,0,0.9,0.03,1.25,0.09
			c0.35,0.06,0.74,0.16,1.16,0.29l0.08,0.17c-0.11,0.53-0.2,1.02-0.27,1.47s-0.11,0.93-0.15,1.45l-1.22,0.08v-0.63
			c0-0.44-0.1-0.78-0.31-1.01s-0.5-0.34-0.88-0.34c-0.58,0-1.03,0.22-1.35,0.65c-0.32,0.43-0.47,1.06-0.47,1.88
			c0,1.05,0.18,1.85,0.55,2.4s0.89,0.83,1.56,0.83c0.35,0,0.69-0.05,1-0.14c0.31-0.09,0.66-0.23,1.04-0.41l0.13,0.06l0.3,0.97
			c-0.37,0.28-0.7,0.51-1,0.7c-0.3,0.19-0.61,0.35-0.94,0.49C162.62,28.16,162.32,28.23,162.04,28.23z"/>
		<path class="st0" d="M166.98,21.6c0-0.32-0.05-0.55-0.15-0.7c-0.1-0.15-0.27-0.23-0.49-0.23c-0.11,0-0.27,0.02-0.48,0.06l0.11-1.1
			c0.39-0.05,0.79-0.11,1.19-0.18c0.4-0.07,0.77-0.14,1.11-0.21c0.34-0.07,0.72-0.14,1.14-0.22l0.17,0.3
			c-0.08,0.17-0.14,0.43-0.2,0.8c-0.06,0.37-0.11,0.8-0.16,1.3c-0.05,0.5-0.09,1.03-0.11,1.6s-0.04,1.13-0.04,1.7
			c0,1.03,0.4,1.54,1.2,1.54c0.29,0,0.58-0.08,0.86-0.24s0.55-0.32,0.79-0.48v-3.91c0-0.37-0.05-0.61-0.16-0.73
			c-0.11-0.12-0.33-0.19-0.66-0.2c-0.05,0-0.12,0-0.2,0.01c-0.08,0.01-0.13,0.01-0.14,0.01l0.15-1.08c0.42-0.05,0.83-0.11,1.24-0.18
			c0.41-0.07,0.79-0.13,1.13-0.19c0.34-0.06,0.73-0.12,1.16-0.2l0.17,0.3c-0.09,0.19-0.17,0.59-0.25,1.21
			c-0.08,0.61-0.14,1.35-0.19,2.21c-0.05,0.86-0.08,1.77-0.08,2.74c0,0.24,0.06,0.43,0.18,0.57s0.29,0.21,0.5,0.21
			c0.15,0,0.3-0.03,0.44-0.09c0.14-0.06,0.3-0.14,0.48-0.24l0.28,0.38c-0.23,0.34-0.44,0.63-0.64,0.87
			c-0.2,0.23-0.41,0.45-0.64,0.65c-0.23,0.2-0.46,0.32-0.68,0.37c-1.17,0-1.81-0.49-1.94-1.46l-0.15-0.08
			c-0.49,0.46-0.93,0.82-1.32,1.1s-0.66,0.42-0.81,0.42c-0.96,0-1.7-0.2-2.2-0.61s-0.76-0.99-0.76-1.77L166.98,21.6z"/>
		<path class="st0" d="M176.23,28.17l0.13-1.16c0.3-0.08,0.52-0.17,0.66-0.29c0.13-0.11,0.21-0.28,0.25-0.48
			c0.03-0.21,0.05-0.47,0.05-0.79v-8.82c0-0.33-0.03-0.57-0.08-0.72c-0.06-0.15-0.17-0.25-0.35-0.29c-0.18-0.04-0.44-0.05-0.8-0.03
			L176,15.52l0.11-1.01c0.63-0.08,1.27-0.16,1.91-0.27s1.28-0.22,1.93-0.34l0.13,0.36c-0.06,0.18-0.13,0.5-0.19,0.96
			s-0.12,1.05-0.17,1.78s-0.09,1.55-0.13,2.48s-0.06,1.95-0.08,3.05s-0.02,2.26-0.02,3.48c0,0.3,0.04,0.52,0.12,0.66
			c0.08,0.13,0.23,0.2,0.45,0.2l0.63-0.04l0.06,0.11l-0.21,1.12c-0.33-0.01-0.7-0.03-1.1-0.04S178.69,28,178.4,28
			c-0.27,0-0.6,0.02-0.99,0.05C177.01,28.08,176.62,28.12,176.23,28.17z"/>
		<path class="st0" d="M185.71,28.23c-0.89,0-1.65-0.18-2.29-0.53s-1.13-0.86-1.48-1.52c-0.35-0.66-0.52-1.43-0.52-2.32
			c0-0.7,0.11-1.34,0.34-1.92c0.23-0.58,0.54-1.09,0.95-1.53s0.88-0.78,1.42-1.03c0.54-0.25,1.13-0.37,1.77-0.37
			c2.13,0,3.19,1.08,3.19,3.23c0,0.19-0.02,0.39-0.05,0.59c-0.03,0.2-0.06,0.36-0.08,0.48l-0.23,0.23h-4.92
			c0.03,0.87,0.23,1.55,0.62,2.04c0.39,0.49,0.93,0.76,1.62,0.81c0.7,0.05,1.51-0.14,2.45-0.57l0.13,0.08l0.3,0.93
			c-0.25,0.19-0.57,0.4-0.95,0.62s-0.77,0.41-1.18,0.56S186.04,28.23,185.71,28.23z M183.81,22.49l2.6-0.15
			c0.15-0.01,0.25-0.05,0.29-0.1c0.04-0.06,0.07-0.17,0.07-0.33c0-0.46-0.1-0.8-0.3-1.04c-0.2-0.24-0.5-0.36-0.89-0.36
			c-0.49,0-0.9,0.17-1.21,0.5C184.06,21.33,183.87,21.83,183.81,22.49z"/>
		<path class="st0" d="M195.76,26.97c0.32-0.06,0.54-0.18,0.67-0.35c0.13-0.17,0.21-0.41,0.22-0.71l0.06-3.29
			c0-0.56-0.1-0.97-0.3-1.24c-0.2-0.27-0.51-0.41-0.93-0.41c-0.2,0-0.42,0.04-0.64,0.12c-0.22,0.08-0.42,0.18-0.6,0.29
			c-0.18,0.11-0.32,0.22-0.44,0.3c-0.01,0.34-0.03,0.73-0.06,1.16s-0.05,0.86-0.07,1.28c-0.02,0.42-0.04,0.8-0.05,1.13
			c-0.01,0.33-0.02,0.56-0.02,0.7c0,0.33,0.04,0.55,0.13,0.67s0.23,0.18,0.44,0.18c0.09,0,0.26-0.01,0.51-0.02l0.04,0.08l-0.19,1.18
			c-0.46-0.03-0.84-0.04-1.15-0.05C193.08,28,192.8,28,192.55,28c-0.33,0-0.67,0.01-1.02,0.03c-0.35,0.02-0.76,0.05-1.23,0.09
			l0.15-1.18c0.37-0.05,0.62-0.15,0.77-0.3c0.15-0.15,0.22-0.41,0.22-0.76v-4.03c0-0.43-0.07-0.73-0.2-0.89
			c-0.13-0.16-0.38-0.25-0.73-0.25h-0.25l-0.08-0.1l0.09-0.99c0.58-0.09,1.14-0.18,1.67-0.28c0.53-0.1,1.14-0.21,1.82-0.35
			l0.15,0.19c-0.11,0.54-0.18,0.98-0.21,1.31l0.08,0.08c0.15-0.13,0.34-0.28,0.56-0.46s0.46-0.35,0.7-0.51s0.48-0.3,0.69-0.42
			c0.22-0.11,0.39-0.17,0.51-0.17c0.9,0,1.6,0.22,2.1,0.65c0.5,0.43,0.75,1.03,0.75,1.8c0,0.19-0.02,0.48-0.06,0.87
			c-0.04,0.39-0.08,0.82-0.12,1.29c-0.04,0.47-0.08,0.91-0.11,1.33c-0.03,0.42-0.05,0.75-0.05,0.99c0,0.32,0.04,0.55,0.13,0.69
			s0.24,0.22,0.46,0.22c0.11,0,0.31-0.01,0.59-0.04L200,26.9l-0.17,1.16c-0.29-0.01-0.54-0.02-0.76-0.03
			c-0.22-0.01-0.44-0.01-0.67-0.02C198.17,28,197.96,28,197.78,28c-0.19,0-0.4,0.01-0.64,0.03c-0.23,0.02-0.47,0.04-0.69,0.05
			c-0.23,0.01-0.49,0.04-0.78,0.08L195.76,26.97z"/>
		<path class="st0" d="M204.29,28.23c-0.9,0-1.56-0.19-1.98-0.57c-0.42-0.38-0.63-0.97-0.63-1.77v-4.24c0-0.39-0.07-0.66-0.21-0.8
			c-0.14-0.14-0.41-0.22-0.82-0.23l-0.19-0.13l0.13-0.93c0.41-0.19,0.8-0.4,1.18-0.64s0.72-0.46,1.02-0.67
			c0.3-0.21,0.62-0.45,0.98-0.71l0.53,0.27c-0.09,0.57-0.16,1.11-0.21,1.63l2.24-0.06l0.08,0.09l-0.19,1.27l-2.24-0.06
			c-0.04,0.54-0.07,1.16-0.09,1.85c-0.02,0.69-0.03,1.45-0.03,2.29c0,0.54,0.09,0.94,0.29,1.18c0.19,0.24,0.5,0.36,0.93,0.36
			c0.28,0,0.66-0.09,1.14-0.27l0.25,0.61c-0.34,0.3-0.64,0.55-0.88,0.75s-0.49,0.37-0.73,0.52
			C204.62,28.15,204.43,28.23,204.29,28.23z"/>
		<path class="st0" d="M213.94,28.23c-0.56,0-1-0.13-1.32-0.38c-0.32-0.25-0.52-0.61-0.58-1.08l-0.15-0.06
			c-0.24,0.25-0.49,0.49-0.76,0.71c-0.27,0.22-0.51,0.4-0.74,0.53c-0.23,0.13-0.42,0.2-0.59,0.2c-0.49,0-0.94-0.12-1.33-0.36
			s-0.7-0.57-0.93-0.99c-0.23-0.42-0.34-0.89-0.34-1.41c0-0.39,0.1-0.73,0.31-1.02c0.21-0.28,0.47-0.47,0.79-0.56l3.67-0.85
			l0.02-0.46c0-0.54-0.14-0.97-0.43-1.27c-0.28-0.3-0.69-0.46-1.21-0.46c-0.35,0-0.73,0.09-1.14,0.26
			c-0.41,0.17-0.77,0.38-1.08,0.64l-0.17-0.08l-0.32-1.14c0.37-0.22,0.78-0.43,1.23-0.66c0.46-0.22,0.89-0.41,1.3-0.56
			c0.41-0.15,0.73-0.23,0.94-0.23c0.73,0,1.34,0.11,1.81,0.34c0.47,0.23,0.81,0.54,1.03,0.92c0.22,0.39,0.32,0.83,0.32,1.32
			c0,0.16-0.02,0.42-0.06,0.76c-0.04,0.34-0.08,0.72-0.13,1.12s-0.09,0.79-0.13,1.16s-0.06,0.66-0.06,0.87
			c0,0.24,0.06,0.43,0.18,0.57c0.12,0.14,0.29,0.21,0.5,0.21c0.17,0,0.33-0.04,0.5-0.11s0.31-0.15,0.41-0.21l0.29,0.4
			c-0.13,0.21-0.29,0.46-0.49,0.73c-0.2,0.27-0.42,0.51-0.65,0.72C214.4,28.03,214.17,28.16,213.94,28.23z M210.5,26.35
			c0.19,0,0.41-0.05,0.67-0.16s0.49-0.24,0.69-0.39l0.06-1.8l-2.03,0.57c-0.3,0.09-0.46,0.3-0.46,0.63c0,0.33,0.1,0.6,0.29,0.83
			C209.93,26.24,210.19,26.35,210.5,26.35z"/>
		<path class="st0" d="M219.09,28.23c-0.51,0-0.95-0.04-1.33-0.13c-0.38-0.09-0.78-0.21-1.2-0.38l-0.11-0.19
			c0.03-0.18,0.05-0.42,0.09-0.72c0.03-0.3,0.06-0.62,0.09-0.94c0.03-0.32,0.05-0.6,0.07-0.85l1.04-0.09
			c0.01,0.65,0.16,1.13,0.44,1.44c0.28,0.32,0.7,0.47,1.25,0.47c0.37,0,0.67-0.08,0.91-0.24c0.24-0.16,0.36-0.36,0.36-0.6
			c0-0.18-0.05-0.33-0.16-0.47s-0.3-0.29-0.57-0.47s-0.66-0.38-1.17-0.62c-0.76-0.35-1.31-0.73-1.65-1.13s-0.51-0.86-0.51-1.4
			c0-0.58,0.16-1.09,0.49-1.52c0.33-0.43,0.79-0.77,1.39-1.02c0.59-0.25,1.27-0.37,2.03-0.37c0.62,0,1.33,0.11,2.13,0.34l0.09,0.19
			c-0.09,0.47-0.16,0.89-0.22,1.26c-0.06,0.37-0.1,0.77-0.14,1.19l-1.06,0.08c0.01-0.18,0.02-0.29,0.02-0.34
			c0-0.44-0.11-0.77-0.32-0.98c-0.21-0.21-0.55-0.31-1.01-0.31c-0.34,0-0.62,0.08-0.84,0.24c-0.22,0.16-0.33,0.36-0.33,0.6
			c0,0.24,0.1,0.46,0.31,0.67s0.54,0.42,1,0.65c0.73,0.34,1.3,0.66,1.71,0.94c0.41,0.29,0.69,0.57,0.84,0.86s0.24,0.63,0.24,1.01
			c0,0.52-0.17,1-0.51,1.43c-0.34,0.44-0.81,0.78-1.4,1.03S219.81,28.23,219.09,28.23z"/>
	</g>
</g>
</svg>
